<svg width="1247" height="322" viewBox="0 0 1247 322" fill="none" xmlns="http://www.w3.org/2000/svg">
<g filter="url(#filter0_f_537_931)">
<path d="M22 298L114 247L255 288L398 233L505 254L756 109L964 214L1074 36L1224 135" stroke="#FBAC76" stroke-width="8"/>
</g>
<g filter="url(#filter1_b_537_931)">
<path d="M26 297L118 246L259 287L402 232L509 253L752 108L968 213L1070 44L1216 130" stroke="#E38342" stroke-width="8" stroke-linecap="round"/>
</g>
<g filter="url(#filter2_f_537_931)">
<circle cx="116.5" cy="249.5" r="28.5" fill="#B90B46"/>
</g>
<circle cx="116" cy="249" r="25" fill="#9F3045"/>
<circle cx="115.5" cy="249.5" r="17.5" fill="#FBAC76"/>
<g filter="url(#filter3_f_537_931)">
<circle cx="1077.5" cy="45.5" r="28.5" fill="#B90B46"/>
</g>
<circle cx="1077" cy="45" r="25" fill="#9F3045"/>
<circle cx="1076.5" cy="45.5" r="17.5" fill="#FBAC76"/>
<g filter="url(#filter4_f_537_931)">
<circle cx="752.5" cy="108.5" r="28.5" fill="#B90B46"/>
</g>
<circle cx="752" cy="108" r="25" fill="#9F3045"/>
<circle cx="751.5" cy="108.5" r="17.5" fill="#FBAC76"/>
<g filter="url(#filter5_f_537_931)">
<circle cx="402.5" cy="232.5" r="28.5" fill="#B90B46"/>
</g>
<circle cx="402" cy="232" r="25" fill="#9F3045"/>
<circle cx="401.5" cy="232.5" r="17.5" fill="#FBAC76"/>
<defs>
<filter id="filter0_f_537_931" x="0.0605469" y="10.3916" width="1246.14" height="311.107" filterUnits="userSpaceOnUse" color-interpolation-filters="sRGB">
<feFlood flood-opacity="0" result="BackgroundImageFix"/>
<feBlend mode="normal" in="SourceGraphic" in2="BackgroundImageFix" result="shape"/>
<feGaussianBlur stdDeviation="10" result="effect1_foregroundBlur_537_931"/>
</filter>
<filter id="filter1_b_537_931" x="17.9993" y="34.5449" width="1206" height="270.456" filterUnits="userSpaceOnUse" color-interpolation-filters="sRGB">
<feFlood flood-opacity="0" result="BackgroundImageFix"/>
<feGaussianBlur in="BackgroundImage" stdDeviation="2"/>
<feComposite in2="SourceAlpha" operator="in" result="effect1_backgroundBlur_537_931"/>
<feBlend mode="normal" in="SourceGraphic" in2="effect1_backgroundBlur_537_931" result="shape"/>
</filter>
<filter id="filter2_f_537_931" x="71" y="204" width="91" height="91" filterUnits="userSpaceOnUse" color-interpolation-filters="sRGB">
<feFlood flood-opacity="0" result="BackgroundImageFix"/>
<feBlend mode="normal" in="SourceGraphic" in2="BackgroundImageFix" result="shape"/>
<feGaussianBlur stdDeviation="8.5" result="effect1_foregroundBlur_537_931"/>
</filter>
<filter id="filter3_f_537_931" x="1032" y="0" width="91" height="91" filterUnits="userSpaceOnUse" color-interpolation-filters="sRGB">
<feFlood flood-opacity="0" result="BackgroundImageFix"/>
<feBlend mode="normal" in="SourceGraphic" in2="BackgroundImageFix" result="shape"/>
<feGaussianBlur stdDeviation="8.5" result="effect1_foregroundBlur_537_931"/>
</filter>
<filter id="filter4_f_537_931" x="707" y="63" width="91" height="91" filterUnits="userSpaceOnUse" color-interpolation-filters="sRGB">
<feFlood flood-opacity="0" result="BackgroundImageFix"/>
<feBlend mode="normal" in="SourceGraphic" in2="BackgroundImageFix" result="shape"/>
<feGaussianBlur stdDeviation="8.5" result="effect1_foregroundBlur_537_931"/>
</filter>
<filter id="filter5_f_537_931" x="357" y="187" width="91" height="91" filterUnits="userSpaceOnUse" color-interpolation-filters="sRGB">
<feFlood flood-opacity="0" result="BackgroundImageFix"/>
<feBlend mode="normal" in="SourceGraphic" in2="BackgroundImageFix" result="shape"/>
<feGaussianBlur stdDeviation="8.5" result="effect1_foregroundBlur_537_931"/>
</filter>
</defs>
</svg>
