<?xml version="1.0" encoding="utf-8"?>
<!-- Generator: Adobe Illustrator 23.1.0, SVG Export Plug-In . SVG Version: 6.00 Build 0)  -->
<svg version="1.1" id="Слой_1" xmlns="http://www.w3.org/2000/svg" xmlns:xlink="http://www.w3.org/1999/xlink" x="0px" y="0px"
	 viewBox="0 0 20 20" style="enable-background:new 0 0 20 20;" xml:space="preserve">
<style type="text/css">
	.st0{fill:#FFFFFF;}
</style>
<path class="st0" d="M11.4,10l5.7-5.7c0.4-0.4,0.4-1,0-1.4s-1-0.4-1.4,0L10,8.6L4.3,2.9c-0.4-0.4-1-0.4-1.4,0s-0.4,1,0,1.4L8.6,10
	l-5.7,5.7c-0.4,0.4-0.4,1,0,1.4s1,0.4,1.4,0l5.7-5.7l5.7,5.7c0.4,0.4,1,0.4,1.4,0s0.4-1,0-1.4L11.4,10z"/>
</svg>
