<svg width="45" height="45" viewBox="0 0 45 45" fill="none" xmlns="http://www.w3.org/2000/svg">
<rect width="45" height="45" rx="12.5" fill="#B90B46"/>
<path d="M36 15C35.086 15.4053 34.0394 15.8767 33 16C34.0573 15.3833 34.6057 14.163 35 13C34.0143 13.5815 33.1649 14.7885 32 15C31.0681 14.0132 29.4695 13 28 13C25.1685 13 23 15.2159 23 18C23 18.3877 22.9283 18.63 23 19C18.7348 18.7885 15.5269 17.0485 13 14C12.552 14.7401 12 15.0661 12 16C12 17.7445 12.638 20.1013 14 21C13.1577 20.9824 12.6989 20.3877 12 20C12 20.0176 12 19.9648 12 20C12 22.4493 13.6523 24.5242 16 25C15.5699 25.1233 15.466 25 15 25C14.6774 25 14.3226 25.0529 14 25C14.6452 27.0088 16.7599 28.9471 19 29C17.2437 30.3568 14.4014 31 12 31C11.5878 31 11.3943 31.0529 11 31C13.276 32.4273 16.0968 33 19 33C28.4444 33 33 25.6608 33 19C33 18.7885 33.0179 18.2115 33 18C34.0036 17.2599 35.3011 16.022 36 15Z" fill="white"/>
</svg>
