<?xml version="1.0" encoding="utf-8"?>
<!-- Generator: Adobe Illustrator 23.1.0, SVG Export Plug-In . SVG Version: 6.00 Build 0)  -->
<svg version="1.1" id="Слой_1" xmlns="http://www.w3.org/2000/svg" xmlns:xlink="http://www.w3.org/1999/xlink" x="0px" y="0px"
	 viewBox="0 0 20 20" style="enable-background:new 0 0 20 20;" xml:space="preserve">
<style type="text/css">
	.st0{fill:#FFFFFF;}
</style>
<g>
	<g>
		<path class="st0" d="M10,10.7c3,0,4-3,4.3-5.4C14.6,2.3,13.2,0,10,0S5.4,2.3,5.7,5.3C6,7.7,7,10.7,10,10.7z"/>
		<path class="st0" d="M18,17.7c0-0.9-0.1-1.9-0.3-2.8c-0.2-1.1-0.5-2.8-1.4-3.5c-0.6-0.4-1.3-0.6-2-0.8c-0.3-0.1-0.6-0.2-0.9-0.4
			c-0.9,1-2.1,1.5-3.4,1.5c-1.4,0-2.5-0.5-3.4-1.5c-0.3,0.1-0.6,0.3-0.9,0.4c-0.7,0.3-1.4,0.4-2,0.8c-1,0.7-1.2,2.4-1.4,3.5
			C2.1,15.8,2,16.8,2,17.7c0,0.7,0.3,0.8,0.9,1.1c0.8,0.3,1.6,0.5,2.4,0.6C6.8,19.7,8.4,20,10,20s3.2-0.3,4.7-0.6
			c0.8-0.2,1.6-0.4,2.4-0.6C17.7,18.5,18,18.4,18,17.7z"/>
	</g>
</g>
</svg>
