<svg width="45" height="45" viewBox="0 0 45 45" fill="none" xmlns="http://www.w3.org/2000/svg">
<rect width="45" height="45" rx="12.5" fill="#B90B46"/>
<path fill-rule="evenodd" clip-rule="evenodd" d="M22 31H23C23 31 23.7446 31.2696 24 31C24.2383 30.7472 24 30 24 30C24 30 23.9786 27.3202 25 27C26.0043 26.6798 27.6382 29.0731 29 30C30.0383 30.7078 31 31 31 31H35C35 31 36.9021 30.483 36 29C35.9319 28.882 35.1958 28.0223 33 26C30.702 23.8934 31.2254 23.6401 34 20C35.6852 17.7754 36.2042 16.5898 36 16C35.7957 15.4438 34 16 34 16H30C30 16 30.2213 15.8651 30 16C29.7787 16.1348 29 16 29 16C29 16 28.8681 18.5338 28 20C26.1616 23.084 25.2893 23.2022 25 23C24.3021 22.5618 24 20.9606 24 20C24 17.0171 24.3447 15.3202 23 15C22.5574 14.8989 22.1405 15 21 15C19.5361 14.9831 18.7149 14.6461 18 15C17.5233 15.2191 16.7787 15.9831 17 16C17.2723 16.0337 18.6765 16.5618 19 17C19.4255 17.573 19 19 19 19C19 19 18.8 22.5618 18 23C17.4382 23.3033 16.6341 22.7975 15 20C14.1659 18.5675 14 16 14 16C14 16 14.2213 16.1516 14 16C13.7446 15.8146 13 16 13 16H8.99997C8.99997 16 8.20423 15.7472 7.99997 16C7.81272 16.2191 7.99997 17 7.99997 17C7.99997 17 11.5274 24.4272 15 28C18.1491 31.2525 22 31 22 31Z" fill="white"/>
</svg>
