<svg width="45" height="45" viewBox="0 0 45 45" fill="none" xmlns="http://www.w3.org/2000/svg">
<rect width="45" height="45" rx="12.5" fill="#B90B46"/>
<path d="M34.9999 16.9999C34.7051 15.7516 33.266 14.1348 31.9999 13.9999C28.9994 13.6794 26.0351 13.9999 22.9999 13.9999C19.9648 13.9999 16.0178 13.6794 12.9999 13.9999C11.7338 14.1348 10.2948 15.7347 9.99994 16.9999C9.58369 18.788 9.99994 20.1612 9.99994 21.9999C9.99994 23.8386 9.58369 26.2118 9.99994 27.9999C10.2948 29.2482 11.7338 30.8649 12.9999 30.9999C16.0004 31.3204 18.9648 30.9999 21.9999 30.9999C25.0351 30.9999 28.9821 31.3204 31.9999 30.9999C33.266 30.8649 34.7051 29.2482 34.9999 27.9999C35.4162 26.2118 34.9999 23.8386 34.9999 21.9999C35.0173 20.1443 35.4162 18.788 34.9999 16.9999ZM19.9999 25.9999V18.9999L26.9999 21.9999L19.9999 25.9999Z" fill="white"/>
</svg>
